<svg xmlns="http://www.w3.org/2000/svg" width="160" height="160" viewBox="0 0 160 160"><defs><linearGradient id="bgGrad" x1="0%" x2="100%" y1="0%" y2="100%"><stop offset="0%" stop-color="#1a1a2e"/><stop offset="100%" stop-color="#0f0f1e"/></linearGradient><radialGradient id="amberGlow" cx="80%" cy="20%" r="60%"><stop offset="0%" stop-color="#f59e0b" stop-opacity=".18"/><stop offset="50%" stop-color="#f59e0b" stop-opacity=".05"/><stop offset="100%" stop-color="#f59e0b" stop-opacity="0"/></radialGradient><radialGradient id="cyanGlow" cx="20%" cy="80%" r="45%"><stop offset="0%" stop-color="#06b6d4" stop-opacity=".12"/><stop offset="100%" stop-color="#06b6d4" stop-opacity="0"/></radialGradient><linearGradient id="cutGrad" x1="0%" x2="100%" y1="0%" y2="0%"><stop offset="0%" stop-color="#f59e0b" stop-opacity=".9"/><stop offset="100%" stop-color="#f59e0b" stop-opacity="0"/></linearGradient><linearGradient id="frameGrad" x1="0%" x2="100%" y1="0%" y2="100%"><stop offset="0%" stop-color="#2a2a4a"/><stop offset="100%" stop-color="#1e1e38"/></linearGradient></defs><rect width="160" height="160" fill="url(#bgGrad)" rx="24"/><rect width="160" height="160" fill="url(#amberGlow)" rx="24"/><rect width="160" height="160" fill="url(#cyanGlow)" rx="24"/><g fill="#f59e0b" opacity=".25"><rect width="8" height="5" x="22" y="28" rx="1.5"/><rect width="8" height="5" x="22" y="42" rx="1.5"/><rect width="8" height="5" x="22" y="56" rx="1.5"/><rect width="8" height="5" x="22" y="70" rx="1.5"/><rect width="8" height="5" x="22" y="84" rx="1.5"/><rect width="8" height="5" x="22" y="98" rx="1.5"/><rect width="8" height="5" x="22" y="112" rx="1.5"/></g><g fill="#f59e0b" opacity=".25"><rect width="8" height="5" x="130" y="28" rx="1.5"/><rect width="8" height="5" x="130" y="42" rx="1.5"/><rect width="8" height="5" x="130" y="56" rx="1.5"/><rect width="8" height="5" x="130" y="70" rx="1.5"/><rect width="8" height="5" x="130" y="84" rx="1.5"/><rect width="8" height="5" x="130" y="98" rx="1.5"/><rect width="8" height="5" x="130" y="112" rx="1.5"/></g><rect width="84" height="84" x="38" y="24" fill="url(#frameGrad)" stroke="#f59e0b" stroke-opacity=".5" stroke-width="1.5" rx="6"/><polygon fill="url(#playGrad)" points="68 50 104 68 68 86"/><linearGradient id="playGrad" x1="0%" x2="100%" y1="0%" y2="100%"><stop offset="0%" stop-color="#fff"/><stop offset="100%" stop-color="#fcd34d"/></linearGradient><line x1="38" x2="122" y1="108" y2="24" stroke="url(#cutGrad)" stroke-linecap="round" stroke-width="3"/><circle cx="38" cy="108" r="4" fill="#f59e0b"/><circle cx="122" cy="24" r="4" fill="#06b6d4"/><text x="80" y="136" fill="#f8fafc" font-family="'Syne', 'Inter', system-ui, sans-serif" font-size="12" font-weight="800" letter-spacing=".15em" text-anchor="middle">CUTDECK</text><rect width="60" height="1.5" x="50" y="146" fill="#f59e0b" opacity=".4" rx=".75"/></svg>